<svg version="1.1" id="Layer_1" xmlns="http://www.w3.org/2000/svg" xmlns:xlink="http://www.w3.org/1999/xlink" x="0px" y="0px"
	 height="50px" width="50" viewBox="0 0 1024 1024" enable-background="new 0 0 1024 1024" xml:space="preserve">
<path  d="
M600.308228,682.232056 
	C605.614380,680.292114 606.874817,676.784607 606.821594,671.608765 
	C606.557983,645.945374 606.682617,620.277832 606.719666,594.611816 
	C606.722717,592.516113 606.176147,590.290100 607.511475,588.353455 
	C609.382629,587.697449 610.800354,588.788269 612.263916,589.462463 
	C637.986206,601.311890 663.657043,613.274231 689.446960,624.974426 
	C693.821045,626.958801 695.652039,629.375854 695.476990,634.348816 
	C695.084412,645.501221 695.270386,656.678406 695.425598,667.842712 
	C695.469788,671.022705 694.547424,673.055847 691.686707,674.702026 
	C639.555481,704.699585 587.453430,734.748108 535.422546,764.919189 
	C531.661316,767.100220 529.147278,765.300659 526.285889,763.648193 
	C493.966583,744.983643 461.653900,726.307739 429.330383,707.650574 
	C398.017212,689.576538 366.724152,671.467224 335.331177,653.532837 
	C331.845184,651.541382 330.243805,649.362732 330.526733,645.277832 
	C330.877197,640.216980 330.610657,635.113403 330.610657,628.624023 
	C397.805939,667.405701 463.755127,705.468140 531.090393,744.330627 
	C531.090393,610.714661 531.090393,478.565979 531.090393,346.590057 
	C534.127197,345.862335 535.541016,347.240417 537.054749,348.113098 
	C588.441895,377.737518 639.807495,407.399414 691.203064,437.009247 
	C693.839966,438.528442 695.451477,440.124695 695.440308,443.566681 
	C695.321899,479.898468 695.376343,516.230774 695.366028,552.562988 
	C695.365723,553.697571 695.182251,554.832214 695.093933,555.854065 
	C692.848267,557.085144 691.308167,555.658813 689.757812,554.946350 
	C663.569824,542.912048 637.435059,530.761658 611.208679,518.811951 
	C607.803467,517.260437 606.606812,515.264343 606.626892,511.589813 
	C606.760132,487.257751 606.614746,462.924072 606.783142,438.592468 
	C606.809875,434.728546 605.535156,432.511322 602.187561,430.680023 
	C593.566101,425.963593 585.141113,420.889252 576.599792,416.024292 
	C574.919495,415.067200 573.335266,413.699341 570.724243,413.921417 
	C570.724243,508.797821 570.724243,603.637512 570.724243,699.352051 
	C580.793823,693.525757 590.392029,687.972229 600.308228,682.232056 
z"/>
<path d="
M590.338623,314.608978 
	C624.125610,334.129639 657.564514,353.520935 691.089355,372.762482 
	C694.244263,374.573181 695.639832,376.592468 695.445984,380.253204 
	C695.167603,385.510986 695.374939,390.794495 695.374939,397.355774 
	C628.239685,358.625031 562.109802,320.474274 494.870972,281.683807 
	C494.870972,415.064087 494.870972,547.355042 494.870972,679.469971 
	C491.983002,680.290710 490.548676,678.916626 489.034119,678.043091 
	C437.508026,648.326294 386.004974,618.569458 334.465973,588.875122 
	C331.950104,587.425598 330.504150,585.929382 330.515533,582.695312 
	C330.642487,546.529297 330.604340,510.362762 330.636230,474.196411 
	C330.637512,472.744568 330.278320,471.181030 331.390472,469.892670 
	C333.389587,469.237244 334.948608,470.431305 336.569611,471.178253 
	C362.593201,483.170319 388.572754,495.258820 414.654602,507.122559 
	C418.278442,508.770905 419.418213,510.882751 419.393311,514.746948 
	C419.237854,538.912476 419.414764,563.080200 419.231445,587.245300 
	C419.200714,591.295532 420.466064,593.545715 424.048615,595.455078 
	C432.425201,599.919495 440.530670,604.890686 448.782745,609.591980 
	C450.608734,610.632263 452.309448,612.170105 454.758087,611.809509 
	C456.303192,609.903076 455.641205,607.649841 455.641907,605.574768 
	C455.678955,499.742065 455.713806,393.909332 455.562958,288.076843 
	C455.555847,283.097015 456.935150,280.167145 461.356812,277.809601 
	C470.613922,272.873840 479.699951,267.589996 488.633972,262.088165 
	C492.557526,259.671936 495.673401,259.806091 499.603912,262.100128 
	C529.678345,279.652985 559.863464,297.016235 590.338623,314.608978 
z"/>
</svg>